<svg xmlns="http://www.w3.org/2000/svg" viewBox="0 0 1254 1254" width="1254" height="1254">

<style>
  .bg { fill: #1C447F; }
  .fg { fill: #FFFFFF; }
</style>

<rect x="0" y="0" width="1254" height="1254" fill="#FFFFFF" />
<circle id="logo_background" class="bg" cx="626.40" cy="627.73" r="629.58" />
<path id="logo_foreground" class="fg" fill-rule="evenodd" d="M 615 966 L 615 967 L 616 968 L 616 972 L 617 973 L 617 976 L 618 977 L 618 1002 L 617 1003 L 617 1008 L 616 1009 L 616 1011 L 615 1012 L 615 1014 L 614 1015 L 614 1017 L 613 1018 L 613 1020 L 612 1021 L 612 1022 L 619 1022 L 620 1021 L 632 1021 L 633 1020 L 646 1020 L 647 1019 L 672 1019 L 673 1018 L 697 1018 L 698 1019 L 727 1019 L 728 1020 L 743 1020 L 744 1021 L 751 1021 L 752 1022 L 757 1022 L 757 1020 L 756 1019 L 756 1017 L 755 1016 L 755 1015 L 754 1014 L 754 1012 L 753 1011 L 753 1008 L 752 1007 L 752 1002 L 751 1001 L 751 979 L 752 978 L 752 973 L 753 972 L 753 969 L 754 968 L 754 966 L 752 968 L 751 968 L 750 969 L 749 969 L 748 970 L 747 970 L 746 971 L 744 971 L 743 972 L 742 972 L 741 973 L 740 973 L 739 974 L 737 974 L 736 975 L 734 975 L 733 976 L 731 976 L 730 977 L 728 977 L 727 978 L 725 978 L 724 979 L 720 979 L 719 980 L 716 980 L 715 981 L 711 981 L 710 982 L 703 982 L 702 983 L 674 983 L 673 982 L 666 982 L 665 981 L 660 981 L 659 980 L 655 980 L 654 979 L 650 979 L 649 978 L 646 978 L 645 977 L 643 977 L 642 976 L 639 976 L 638 975 L 636 975 L 635 974 L 633 974 L 632 973 L 630 973 L 629 972 L 628 972 L 627 971 L 625 971 L 624 970 L 623 970 L 622 969 L 621 969 L 620 968 L 618 968 L 617 967 L 616 967 Z M 477 788 L 476 789 L 472 789 L 471 790 L 469 790 L 468 791 L 466 791 L 465 792 L 464 792 L 463 793 L 462 793 L 461 794 L 460 794 L 456 798 L 455 798 L 452 801 L 452 802 L 448 806 L 448 807 L 446 809 L 446 810 L 443 813 L 443 814 L 442 815 L 442 816 L 440 818 L 440 819 L 428 831 L 427 831 L 425 833 L 424 833 L 422 835 L 421 835 L 420 836 L 418 836 L 417 837 L 415 837 L 414 838 L 411 838 L 410 839 L 405 839 L 404 840 L 378 840 L 377 841 L 371 841 L 370 842 L 368 842 L 367 843 L 365 843 L 364 844 L 363 844 L 362 845 L 361 845 L 359 847 L 358 847 L 352 853 L 352 854 L 351 855 L 351 856 L 350 857 L 350 858 L 349 859 L 349 861 L 348 862 L 348 864 L 347 865 L 347 880 L 348 881 L 348 885 L 349 886 L 349 889 L 350 890 L 350 892 L 351 893 L 351 896 L 352 897 L 352 901 L 353 902 L 353 906 L 354 907 L 354 923 L 353 924 L 353 928 L 352 929 L 352 932 L 351 933 L 351 935 L 350 936 L 350 938 L 349 939 L 349 940 L 348 941 L 348 943 L 347 944 L 347 948 L 346 949 L 346 959 L 347 960 L 347 963 L 348 964 L 348 965 L 349 966 L 349 968 L 351 970 L 351 971 L 353 973 L 353 974 L 354 974 L 359 979 L 360 979 L 362 981 L 363 981 L 364 982 L 365 982 L 366 983 L 367 983 L 368 984 L 369 984 L 370 985 L 372 985 L 373 986 L 374 986 L 375 987 L 377 987 L 378 988 L 380 988 L 381 989 L 383 989 L 384 990 L 387 990 L 388 991 L 390 991 L 391 992 L 393 992 L 394 993 L 396 993 L 397 994 L 399 994 L 400 995 L 402 995 L 403 996 L 406 996 L 407 997 L 409 997 L 410 998 L 412 998 L 413 999 L 415 999 L 416 1000 L 417 1000 L 418 1001 L 420 1001 L 421 1002 L 423 1002 L 424 1003 L 426 1003 L 427 1004 L 428 1004 L 429 1005 L 431 1005 L 432 1006 L 433 1006 L 434 1007 L 436 1007 L 437 1008 L 439 1008 L 440 1009 L 441 1009 L 442 1010 L 443 1010 L 444 1011 L 445 1011 L 446 1012 L 448 1012 L 449 1013 L 450 1013 L 451 1014 L 452 1014 L 453 1015 L 454 1015 L 455 1016 L 457 1016 L 458 1017 L 459 1017 L 460 1018 L 461 1018 L 462 1019 L 463 1019 L 464 1020 L 465 1020 L 466 1021 L 467 1021 L 468 1022 L 469 1022 L 470 1023 L 471 1023 L 472 1024 L 473 1024 L 474 1025 L 475 1025 L 476 1026 L 477 1026 L 478 1027 L 479 1027 L 480 1028 L 481 1028 L 482 1029 L 483 1029 L 485 1031 L 487 1031 L 489 1033 L 490 1033 L 491 1034 L 492 1034 L 493 1035 L 494 1035 L 495 1036 L 497 1036 L 498 1037 L 499 1037 L 500 1038 L 501 1038 L 502 1039 L 504 1039 L 505 1040 L 506 1040 L 507 1041 L 509 1041 L 510 1042 L 512 1042 L 513 1043 L 515 1043 L 516 1044 L 519 1044 L 520 1045 L 524 1045 L 525 1046 L 531 1046 L 532 1047 L 554 1047 L 555 1046 L 559 1046 L 560 1045 L 563 1045 L 564 1044 L 565 1044 L 566 1043 L 568 1043 L 570 1041 L 571 1041 L 572 1040 L 573 1040 L 576 1037 L 577 1037 L 583 1031 L 583 1030 L 585 1028 L 585 1027 L 587 1025 L 587 1024 L 588 1023 L 588 1022 L 589 1021 L 589 1020 L 590 1019 L 590 1018 L 591 1017 L 591 1015 L 592 1014 L 592 1011 L 593 1010 L 593 1008 L 594 1007 L 594 1000 L 595 999 L 595 982 L 594 981 L 594 976 L 593 975 L 593 971 L 592 970 L 592 968 L 591 967 L 591 964 L 590 963 L 590 962 L 589 961 L 589 959 L 588 958 L 588 957 L 587 956 L 587 954 L 586 953 L 586 952 L 585 951 L 585 949 L 583 947 L 583 946 L 582 945 L 582 944 L 581 943 L 581 942 L 580 941 L 580 940 L 579 939 L 579 938 L 578 937 L 578 936 L 577 935 L 577 934 L 575 932 L 575 930 L 574 929 L 574 928 L 572 926 L 572 924 L 571 923 L 571 922 L 570 921 L 570 920 L 569 919 L 569 918 L 568 917 L 568 916 L 567 915 L 567 913 L 566 912 L 566 911 L 565 910 L 565 909 L 564 908 L 564 906 L 563 905 L 563 904 L 562 903 L 562 901 L 561 900 L 561 898 L 560 897 L 560 896 L 559 895 L 559 893 L 558 892 L 558 890 L 557 889 L 557 887 L 556 886 L 556 884 L 555 883 L 555 881 L 554 880 L 554 878 L 553 877 L 553 875 L 552 874 L 552 872 L 551 871 L 551 869 L 550 868 L 550 866 L 549 865 L 549 863 L 548 862 L 548 861 L 547 860 L 547 858 L 546 857 L 546 855 L 545 854 L 545 853 L 544 852 L 544 850 L 543 849 L 543 847 L 542 846 L 542 845 L 541 844 L 541 843 L 540 842 L 540 841 L 539 840 L 539 839 L 538 838 L 538 837 L 537 836 L 537 834 L 536 833 L 536 832 L 534 830 L 534 829 L 533 828 L 533 827 L 531 825 L 531 824 L 530 823 L 530 822 L 528 820 L 528 819 L 527 818 L 527 817 L 524 814 L 524 813 L 518 807 L 518 806 L 516 804 L 515 804 L 509 798 L 508 798 L 506 796 L 505 796 L 503 794 L 502 794 L 501 793 L 500 793 L 499 792 L 497 792 L 496 791 L 495 791 L 494 790 L 491 790 L 490 789 L 486 789 L 485 788 Z M 874 786 L 873 787 L 870 787 L 869 788 L 867 788 L 866 789 L 865 789 L 864 790 L 863 790 L 862 791 L 861 791 L 860 792 L 859 792 L 858 793 L 857 793 L 855 795 L 854 795 L 849 800 L 848 800 L 840 808 L 840 809 L 837 812 L 837 813 L 835 815 L 835 816 L 833 818 L 833 819 L 831 821 L 831 822 L 829 824 L 829 825 L 828 826 L 828 827 L 827 828 L 827 829 L 826 830 L 826 831 L 825 832 L 825 833 L 824 834 L 824 835 L 823 836 L 823 837 L 822 838 L 822 840 L 821 841 L 821 842 L 820 843 L 820 845 L 819 846 L 819 847 L 818 848 L 818 850 L 817 851 L 817 853 L 816 854 L 816 856 L 815 857 L 815 859 L 814 860 L 814 862 L 813 863 L 813 865 L 812 866 L 812 868 L 811 869 L 811 871 L 810 872 L 810 875 L 809 876 L 809 878 L 808 879 L 808 882 L 807 883 L 807 885 L 806 886 L 806 888 L 805 889 L 805 892 L 804 893 L 804 895 L 803 896 L 803 898 L 802 899 L 802 902 L 801 903 L 801 905 L 800 906 L 800 908 L 799 909 L 799 911 L 798 912 L 798 914 L 797 915 L 797 916 L 796 917 L 796 919 L 795 920 L 795 921 L 794 922 L 794 924 L 793 925 L 793 926 L 792 927 L 792 929 L 791 930 L 791 931 L 790 932 L 790 933 L 789 934 L 789 936 L 788 937 L 788 938 L 787 939 L 787 940 L 786 941 L 786 942 L 785 943 L 785 945 L 784 946 L 784 947 L 783 948 L 783 950 L 782 951 L 782 952 L 781 953 L 781 954 L 780 955 L 780 957 L 779 958 L 779 960 L 778 961 L 778 963 L 777 964 L 777 966 L 776 967 L 776 969 L 775 970 L 775 974 L 774 975 L 774 979 L 773 980 L 773 1000 L 774 1001 L 774 1005 L 775 1006 L 775 1009 L 776 1010 L 776 1012 L 777 1013 L 777 1014 L 778 1015 L 778 1017 L 779 1018 L 779 1019 L 780 1020 L 780 1021 L 782 1023 L 782 1024 L 785 1027 L 785 1028 L 794 1037 L 795 1037 L 797 1039 L 798 1039 L 799 1040 L 800 1040 L 801 1041 L 802 1041 L 803 1042 L 805 1042 L 806 1043 L 807 1043 L 808 1044 L 811 1044 L 812 1045 L 816 1045 L 817 1046 L 833 1046 L 834 1045 L 839 1045 L 840 1044 L 843 1044 L 844 1043 L 846 1043 L 847 1042 L 849 1042 L 850 1041 L 852 1041 L 853 1040 L 854 1040 L 855 1039 L 857 1039 L 858 1038 L 859 1038 L 860 1037 L 861 1037 L 862 1036 L 863 1036 L 864 1035 L 865 1035 L 866 1034 L 867 1034 L 868 1033 L 869 1033 L 870 1032 L 871 1032 L 872 1031 L 873 1031 L 874 1030 L 875 1030 L 876 1029 L 877 1029 L 879 1027 L 880 1027 L 881 1026 L 882 1026 L 883 1025 L 884 1025 L 886 1023 L 887 1023 L 888 1022 L 889 1022 L 890 1021 L 891 1021 L 893 1019 L 894 1019 L 895 1018 L 896 1018 L 897 1017 L 898 1017 L 899 1016 L 900 1016 L 902 1014 L 903 1014 L 904 1013 L 905 1013 L 906 1012 L 907 1012 L 908 1011 L 909 1011 L 910 1010 L 911 1010 L 912 1009 L 913 1009 L 914 1008 L 915 1008 L 916 1007 L 917 1007 L 918 1006 L 919 1006 L 921 1004 L 923 1004 L 924 1003 L 925 1003 L 926 1002 L 927 1002 L 928 1001 L 929 1001 L 930 1000 L 931 1000 L 932 999 L 933 999 L 934 998 L 936 998 L 937 997 L 938 997 L 939 996 L 941 996 L 942 995 L 943 995 L 944 994 L 946 994 L 947 993 L 948 993 L 949 992 L 951 992 L 952 991 L 954 991 L 955 990 L 957 990 L 958 989 L 959 989 L 960 988 L 962 988 L 963 987 L 965 987 L 966 986 L 968 986 L 969 985 L 971 985 L 972 984 L 974 984 L 975 983 L 976 983 L 977 982 L 979 982 L 980 981 L 981 981 L 982 980 L 983 980 L 984 979 L 985 979 L 986 978 L 987 978 L 988 977 L 989 977 L 990 976 L 991 976 L 994 973 L 995 973 L 1000 968 L 1000 967 L 1003 964 L 1003 963 L 1004 962 L 1004 961 L 1005 960 L 1005 959 L 1006 958 L 1006 956 L 1007 955 L 1007 952 L 1008 951 L 1008 947 L 1009 946 L 1009 940 L 1008 939 L 1008 936 L 1007 935 L 1007 932 L 1006 931 L 1006 929 L 1005 928 L 1005 927 L 1004 926 L 1004 925 L 1002 923 L 1002 922 L 1001 921 L 1001 920 L 999 918 L 999 917 L 997 915 L 997 914 L 996 913 L 996 912 L 995 911 L 995 909 L 994 908 L 994 905 L 993 904 L 993 902 L 992 901 L 992 894 L 991 893 L 991 887 L 992 886 L 992 873 L 993 872 L 993 855 L 992 854 L 992 849 L 991 848 L 991 847 L 990 846 L 990 844 L 988 842 L 988 841 L 986 839 L 986 838 L 981 833 L 980 833 L 979 832 L 978 832 L 977 831 L 976 831 L 975 830 L 974 830 L 973 829 L 971 829 L 970 828 L 968 828 L 967 827 L 959 827 L 958 826 L 946 826 L 945 825 L 940 825 L 939 824 L 936 824 L 935 823 L 934 823 L 933 822 L 932 822 L 931 821 L 930 821 L 929 820 L 928 820 L 925 817 L 924 817 L 921 814 L 921 813 L 917 809 L 917 808 L 915 806 L 915 805 L 912 802 L 912 801 L 903 792 L 902 792 L 900 790 L 899 790 L 898 789 L 896 789 L 895 788 L 894 788 L 893 787 L 889 787 L 888 786 Z M 428 708 L 427 709 L 425 709 L 424 710 L 422 710 L 421 711 L 420 711 L 419 712 L 417 712 L 416 713 L 415 713 L 414 714 L 413 714 L 412 715 L 411 715 L 410 716 L 409 716 L 406 719 L 405 719 L 403 721 L 403 819 L 404 818 L 408 818 L 409 817 L 411 817 L 412 816 L 414 816 L 415 815 L 416 815 L 424 807 L 424 806 L 426 804 L 426 803 L 428 801 L 428 800 L 429 799 L 429 708 Z M 413 590 L 412 591 L 408 591 L 407 592 L 404 592 L 403 593 L 400 593 L 399 594 L 398 594 L 397 595 L 396 595 L 395 596 L 393 596 L 392 597 L 391 597 L 390 598 L 389 598 L 387 600 L 386 600 L 385 601 L 384 601 L 382 603 L 381 603 L 377 607 L 376 607 L 368 615 L 368 616 L 365 619 L 365 620 L 362 623 L 362 624 L 361 625 L 361 626 L 359 628 L 359 629 L 358 630 L 358 631 L 357 632 L 357 633 L 356 634 L 356 635 L 355 636 L 355 638 L 354 639 L 354 640 L 353 641 L 353 643 L 352 644 L 352 646 L 351 647 L 351 650 L 350 651 L 350 654 L 349 655 L 349 659 L 348 660 L 348 667 L 347 668 L 347 683 L 348 684 L 348 692 L 349 693 L 349 697 L 350 698 L 350 702 L 351 703 L 351 705 L 352 706 L 352 709 L 353 710 L 353 712 L 354 713 L 354 714 L 355 715 L 355 716 L 356 717 L 356 719 L 357 720 L 357 721 L 358 722 L 358 723 L 359 724 L 359 725 L 361 727 L 361 728 L 362 729 L 362 730 L 364 732 L 364 733 L 367 736 L 367 737 L 378 748 L 379 748 L 381 750 L 382 750 L 383 751 L 383 725 L 384 724 L 384 719 L 385 718 L 385 716 L 386 715 L 386 713 L 388 711 L 388 710 L 394 704 L 395 704 L 398 701 L 399 701 L 400 700 L 401 700 L 403 698 L 404 698 L 405 697 L 407 697 L 408 696 L 409 696 L 410 695 L 411 695 L 412 694 L 413 694 L 414 693 L 416 693 L 417 692 L 418 692 L 419 691 L 421 691 L 422 690 L 423 690 L 424 689 L 425 689 L 426 688 L 428 688 L 429 687 L 430 687 L 431 686 L 432 686 L 434 684 L 435 684 L 436 683 L 437 683 L 438 682 L 439 682 L 442 679 L 443 679 L 447 675 L 448 675 L 452 671 L 452 670 L 456 666 L 456 665 L 458 663 L 458 662 L 459 661 L 459 660 L 460 659 L 460 658 L 461 657 L 461 656 L 462 655 L 462 654 L 463 653 L 463 651 L 464 650 L 464 648 L 465 647 L 465 643 L 466 642 L 466 623 L 465 622 L 465 619 L 464 618 L 464 616 L 463 615 L 463 614 L 462 613 L 462 612 L 461 611 L 461 610 L 460 609 L 460 608 L 458 606 L 458 605 L 453 600 L 452 600 L 450 598 L 449 599 L 448 598 L 448 597 L 447 596 L 446 596 L 445 595 L 444 595 L 443 594 L 442 594 L 441 593 L 439 593 L 438 592 L 436 592 L 435 591 L 431 591 L 430 590 Z M 624 495 L 624 497 L 623 498 L 623 502 L 622 503 L 622 506 L 621 507 L 621 510 L 620 511 L 620 513 L 619 514 L 619 517 L 618 518 L 618 520 L 617 521 L 617 523 L 616 524 L 616 526 L 615 527 L 615 529 L 614 530 L 614 532 L 613 533 L 613 535 L 612 536 L 612 538 L 611 539 L 611 540 L 610 541 L 610 543 L 609 544 L 609 546 L 608 547 L 608 548 L 607 549 L 607 551 L 606 552 L 606 553 L 605 554 L 605 555 L 604 556 L 604 558 L 603 559 L 603 560 L 602 561 L 602 562 L 601 563 L 601 565 L 600 566 L 600 567 L 599 568 L 599 569 L 598 570 L 598 571 L 597 572 L 597 574 L 596 575 L 596 576 L 595 577 L 595 578 L 594 579 L 594 580 L 593 581 L 593 582 L 592 583 L 592 584 L 591 585 L 591 586 L 590 587 L 590 588 L 589 589 L 589 590 L 588 591 L 588 592 L 587 593 L 587 594 L 586 595 L 586 596 L 585 597 L 585 598 L 584 599 L 584 600 L 583 601 L 583 602 L 582 603 L 582 604 L 581 605 L 581 606 L 580 607 L 580 608 L 579 609 L 579 610 L 578 611 L 578 612 L 577 613 L 577 614 L 576 615 L 576 616 L 575 617 L 575 618 L 574 619 L 574 620 L 573 621 L 573 622 L 572 623 L 572 624 L 571 625 L 571 626 L 570 627 L 570 628 L 569 629 L 569 630 L 568 631 L 568 632 L 567 633 L 567 635 L 565 637 L 565 639 L 564 640 L 564 641 L 563 642 L 563 643 L 562 644 L 562 645 L 561 646 L 561 647 L 560 648 L 560 649 L 559 650 L 559 651 L 558 652 L 558 653 L 557 654 L 557 655 L 556 656 L 556 658 L 555 659 L 555 660 L 554 661 L 554 662 L 553 663 L 553 664 L 552 665 L 552 666 L 551 667 L 551 669 L 550 670 L 550 671 L 549 672 L 549 673 L 548 674 L 548 676 L 547 677 L 547 678 L 546 679 L 546 680 L 545 681 L 545 683 L 544 684 L 544 685 L 543 686 L 543 688 L 542 689 L 542 690 L 541 691 L 541 693 L 540 694 L 540 695 L 539 696 L 539 698 L 538 699 L 538 701 L 537 702 L 537 703 L 536 704 L 536 706 L 535 707 L 535 709 L 534 710 L 534 713 L 533 714 L 533 716 L 532 717 L 532 719 L 531 720 L 531 723 L 530 724 L 530 727 L 529 728 L 529 731 L 528 732 L 528 736 L 527 737 L 527 741 L 526 742 L 526 748 L 525 749 L 525 757 L 524 758 L 524 774 L 525 775 L 525 783 L 527 785 L 528 785 L 537 794 L 537 795 L 541 799 L 541 800 L 544 803 L 544 804 L 546 806 L 546 807 L 548 809 L 548 810 L 550 812 L 550 813 L 551 814 L 551 815 L 553 817 L 553 818 L 554 819 L 554 820 L 555 821 L 555 822 L 556 823 L 556 824 L 557 825 L 557 826 L 558 827 L 558 828 L 559 829 L 559 830 L 560 831 L 560 833 L 561 834 L 561 835 L 562 836 L 562 838 L 563 839 L 563 840 L 564 841 L 564 843 L 565 844 L 565 845 L 566 846 L 566 848 L 567 849 L 567 851 L 568 852 L 568 854 L 569 855 L 569 857 L 570 858 L 570 860 L 571 861 L 571 863 L 572 864 L 572 866 L 573 867 L 573 869 L 574 870 L 574 872 L 575 873 L 575 875 L 576 876 L 576 879 L 577 880 L 577 881 L 578 882 L 578 884 L 579 885 L 579 887 L 580 888 L 580 890 L 581 891 L 581 893 L 582 894 L 582 895 L 583 896 L 583 898 L 584 899 L 584 900 L 585 901 L 585 903 L 586 904 L 586 905 L 587 906 L 587 907 L 588 908 L 588 909 L 589 910 L 589 911 L 590 912 L 590 913 L 591 914 L 591 915 L 593 917 L 593 918 L 594 919 L 594 920 L 596 922 L 596 923 L 598 925 L 598 926 L 609 937 L 610 937 L 613 940 L 614 940 L 616 942 L 617 942 L 618 943 L 619 943 L 621 945 L 622 945 L 623 946 L 624 946 L 625 947 L 626 947 L 627 948 L 628 948 L 629 949 L 630 949 L 631 950 L 633 950 L 634 951 L 635 951 L 636 952 L 638 952 L 639 953 L 641 953 L 642 954 L 644 954 L 645 955 L 647 955 L 648 956 L 650 956 L 651 957 L 655 957 L 656 958 L 660 958 L 661 959 L 665 959 L 666 960 L 672 960 L 673 961 L 685 961 L 686 962 L 692 962 L 693 961 L 703 961 L 704 960 L 709 960 L 710 959 L 714 959 L 715 958 L 719 958 L 720 957 L 722 957 L 723 956 L 725 956 L 726 955 L 728 955 L 729 954 L 731 954 L 732 953 L 733 953 L 734 952 L 736 952 L 737 951 L 738 951 L 739 950 L 740 950 L 742 948 L 743 948 L 744 947 L 745 947 L 746 946 L 747 946 L 749 944 L 750 944 L 752 942 L 753 942 L 756 939 L 757 939 L 764 932 L 764 931 L 767 928 L 767 927 L 769 925 L 769 924 L 771 922 L 771 921 L 772 920 L 772 919 L 773 918 L 773 917 L 774 916 L 774 915 L 775 914 L 775 913 L 776 912 L 776 910 L 777 909 L 777 908 L 778 907 L 778 905 L 779 904 L 779 903 L 780 902 L 780 900 L 781 899 L 781 897 L 782 896 L 782 894 L 783 893 L 783 891 L 784 890 L 784 887 L 785 886 L 785 884 L 786 883 L 786 880 L 787 879 L 787 877 L 788 876 L 788 873 L 789 872 L 789 870 L 790 869 L 790 866 L 791 865 L 791 862 L 792 861 L 792 859 L 793 858 L 793 856 L 794 855 L 794 853 L 795 852 L 795 849 L 796 848 L 796 846 L 797 845 L 797 843 L 798 842 L 798 841 L 799 840 L 799 838 L 800 837 L 800 836 L 801 835 L 801 833 L 802 832 L 802 831 L 803 830 L 803 828 L 804 827 L 804 826 L 805 825 L 805 824 L 806 823 L 806 822 L 807 821 L 807 820 L 808 819 L 808 818 L 809 817 L 809 816 L 811 814 L 811 813 L 812 812 L 812 811 L 814 809 L 814 808 L 816 806 L 816 805 L 818 803 L 818 802 L 820 800 L 820 799 L 827 792 L 827 791 L 835 783 L 836 783 L 840 779 L 841 779 L 843 777 L 844 777 L 846 775 L 846 770 L 847 769 L 847 744 L 846 743 L 846 735 L 845 734 L 845 728 L 844 727 L 844 722 L 843 721 L 843 717 L 842 716 L 842 713 L 841 712 L 841 709 L 840 708 L 840 705 L 839 704 L 839 702 L 838 701 L 838 698 L 837 697 L 837 695 L 836 694 L 836 692 L 835 691 L 835 689 L 834 688 L 834 686 L 833 685 L 833 683 L 832 682 L 832 680 L 831 679 L 831 678 L 830 677 L 830 675 L 829 674 L 829 672 L 828 671 L 828 670 L 827 669 L 827 667 L 826 666 L 826 665 L 825 664 L 825 663 L 824 662 L 824 660 L 823 659 L 823 658 L 822 657 L 822 656 L 821 655 L 821 654 L 820 653 L 820 652 L 819 651 L 819 650 L 818 649 L 818 648 L 817 647 L 817 646 L 816 645 L 816 644 L 815 643 L 815 642 L 814 641 L 814 640 L 813 639 L 813 638 L 812 637 L 812 636 L 811 635 L 811 634 L 810 633 L 810 632 L 809 631 L 809 630 L 808 629 L 808 628 L 806 626 L 806 625 L 805 624 L 805 623 L 803 621 L 803 619 L 801 617 L 801 616 L 800 615 L 800 614 L 799 613 L 799 612 L 798 611 L 798 609 L 796 607 L 796 606 L 795 605 L 795 604 L 794 603 L 794 602 L 793 601 L 793 600 L 792 599 L 792 598 L 791 597 L 791 596 L 790 595 L 790 594 L 789 593 L 789 592 L 788 591 L 788 590 L 787 589 L 787 588 L 786 587 L 786 586 L 785 585 L 785 584 L 784 583 L 784 582 L 783 581 L 783 579 L 782 578 L 782 577 L 781 576 L 781 575 L 780 574 L 780 572 L 779 571 L 779 570 L 778 569 L 778 568 L 777 567 L 777 565 L 776 564 L 776 563 L 775 562 L 775 560 L 774 559 L 774 558 L 773 557 L 773 555 L 772 554 L 772 552 L 771 551 L 771 549 L 770 548 L 770 546 L 769 545 L 769 543 L 768 542 L 768 540 L 767 539 L 767 536 L 766 535 L 766 533 L 765 532 L 765 529 L 764 528 L 764 525 L 763 524 L 763 521 L 762 520 L 762 517 L 761 516 L 761 512 L 760 511 L 760 507 L 759 506 L 759 501 L 758 500 L 758 495 L 755 498 L 754 498 L 752 500 L 751 500 L 748 503 L 747 503 L 745 505 L 744 505 L 743 506 L 742 506 L 740 508 L 739 508 L 737 510 L 736 510 L 735 511 L 734 511 L 732 513 L 731 513 L 730 514 L 729 514 L 727 516 L 726 516 L 725 517 L 724 517 L 722 519 L 720 519 L 719 520 L 718 520 L 717 521 L 716 521 L 715 522 L 714 522 L 713 523 L 712 523 L 711 524 L 710 524 L 709 525 L 707 525 L 706 526 L 704 526 L 703 527 L 700 527 L 699 528 L 694 528 L 693 529 L 683 529 L 682 528 L 677 528 L 676 527 L 673 527 L 672 526 L 670 526 L 669 525 L 667 525 L 666 524 L 665 524 L 664 523 L 663 523 L 662 522 L 661 522 L 660 521 L 659 521 L 658 520 L 657 520 L 655 518 L 654 518 L 652 516 L 651 516 L 650 515 L 649 515 L 646 512 L 645 512 L 643 510 L 642 510 L 639 507 L 638 507 L 634 503 L 633 503 L 628 498 L 627 498 Z M 686 423 L 685 424 L 679 424 L 678 425 L 674 425 L 673 426 L 671 426 L 670 427 L 668 427 L 667 428 L 665 428 L 664 429 L 662 429 L 661 430 L 660 430 L 659 431 L 657 431 L 656 432 L 655 432 L 654 433 L 653 433 L 652 434 L 651 434 L 650 435 L 649 435 L 648 436 L 647 436 L 646 437 L 645 437 L 644 438 L 643 438 L 642 439 L 641 439 L 639 441 L 637 441 L 636 442 L 635 442 L 633 444 L 632 444 L 631 445 L 630 445 L 629 446 L 628 446 L 625 449 L 624 449 L 622 451 L 621 451 L 616 456 L 616 463 L 623 470 L 624 470 L 628 474 L 629 474 L 631 476 L 632 476 L 634 478 L 635 478 L 637 480 L 638 480 L 640 482 L 641 482 L 643 484 L 644 484 L 645 485 L 646 485 L 648 487 L 649 487 L 650 488 L 651 488 L 653 490 L 654 490 L 655 491 L 656 491 L 657 492 L 658 492 L 659 493 L 660 493 L 661 494 L 662 494 L 663 495 L 664 495 L 665 496 L 666 496 L 667 497 L 669 497 L 670 498 L 672 498 L 673 499 L 676 499 L 677 500 L 683 500 L 684 501 L 688 501 L 689 500 L 695 500 L 696 499 L 699 499 L 700 498 L 702 498 L 703 497 L 705 497 L 706 496 L 708 496 L 709 495 L 710 495 L 711 494 L 713 494 L 714 493 L 715 493 L 716 492 L 717 492 L 718 491 L 720 491 L 721 490 L 722 490 L 723 489 L 724 489 L 725 488 L 726 488 L 727 487 L 728 487 L 729 486 L 730 486 L 731 485 L 732 485 L 733 484 L 734 484 L 736 482 L 737 482 L 738 481 L 739 481 L 740 480 L 741 480 L 742 479 L 743 479 L 744 478 L 745 478 L 747 476 L 748 476 L 749 475 L 750 475 L 751 474 L 752 474 L 754 472 L 755 472 L 757 470 L 758 470 L 761 467 L 762 467 L 765 464 L 765 463 L 766 462 L 766 459 L 765 458 L 765 456 L 762 453 L 761 453 L 759 451 L 758 451 L 756 449 L 755 449 L 754 448 L 753 448 L 751 446 L 750 446 L 749 445 L 748 445 L 747 444 L 746 444 L 745 443 L 744 443 L 743 442 L 742 442 L 740 440 L 738 440 L 737 439 L 736 439 L 735 438 L 734 438 L 733 437 L 732 437 L 731 436 L 730 436 L 729 435 L 728 435 L 727 434 L 726 434 L 725 433 L 724 433 L 723 432 L 721 432 L 720 431 L 719 431 L 718 430 L 716 430 L 715 429 L 714 429 L 713 428 L 710 428 L 709 427 L 708 427 L 707 426 L 704 426 L 703 425 L 700 425 L 699 424 L 693 424 L 692 423 Z M 744 357 L 743 358 L 741 358 L 740 359 L 739 359 L 737 361 L 736 361 L 734 363 L 734 364 L 732 366 L 732 367 L 730 369 L 730 371 L 729 372 L 729 373 L 728 374 L 728 376 L 727 377 L 727 380 L 726 381 L 726 384 L 725 385 L 725 402 L 726 403 L 726 406 L 727 407 L 727 409 L 729 411 L 729 412 L 730 413 L 730 414 L 733 417 L 733 415 L 732 414 L 732 397 L 733 396 L 733 393 L 734 392 L 734 390 L 735 389 L 735 388 L 736 387 L 736 386 L 738 384 L 738 383 L 742 379 L 743 379 L 745 377 L 747 377 L 748 376 L 750 376 L 751 375 L 755 375 L 756 376 L 759 376 L 760 377 L 762 377 L 764 379 L 765 379 L 771 385 L 771 386 L 771 382 L 770 381 L 770 377 L 769 376 L 769 374 L 768 373 L 768 371 L 767 370 L 767 369 L 766 368 L 766 367 L 764 365 L 764 364 L 761 361 L 760 361 L 758 359 L 757 359 L 756 358 L 754 358 L 753 357 Z M 638 357 L 637 358 L 636 358 L 635 359 L 634 359 L 633 360 L 632 360 L 629 363 L 629 364 L 626 367 L 626 368 L 625 369 L 625 371 L 624 372 L 624 373 L 623 374 L 623 377 L 622 378 L 622 381 L 621 382 L 621 401 L 622 402 L 622 405 L 623 406 L 623 408 L 624 409 L 624 410 L 625 411 L 625 412 L 628 415 L 630 415 L 630 414 L 629 413 L 629 410 L 628 409 L 628 395 L 629 394 L 629 391 L 630 390 L 630 389 L 631 388 L 631 387 L 632 386 L 632 385 L 634 383 L 634 382 L 637 379 L 638 379 L 640 377 L 641 377 L 642 376 L 645 376 L 646 375 L 650 375 L 651 376 L 654 376 L 655 377 L 657 377 L 659 379 L 660 379 L 665 384 L 665 385 L 665 381 L 664 380 L 664 376 L 663 375 L 663 374 L 662 373 L 662 371 L 661 370 L 661 369 L 660 368 L 660 367 L 658 365 L 658 364 L 655 361 L 654 361 L 652 359 L 651 359 L 650 358 L 648 358 L 647 357 Z M 697 246 L 696 247 L 687 247 L 686 248 L 682 248 L 681 249 L 677 249 L 676 250 L 673 250 L 672 251 L 669 251 L 668 252 L 666 252 L 665 253 L 663 253 L 662 254 L 661 254 L 660 255 L 658 255 L 657 256 L 655 256 L 654 257 L 653 257 L 652 258 L 651 258 L 650 259 L 649 259 L 648 260 L 647 260 L 645 262 L 644 262 L 643 263 L 642 263 L 641 264 L 640 264 L 637 267 L 636 267 L 633 270 L 632 270 L 629 273 L 628 273 L 617 284 L 617 285 L 613 289 L 613 290 L 610 293 L 610 294 L 608 296 L 608 297 L 607 298 L 607 299 L 605 301 L 605 302 L 604 303 L 604 304 L 603 305 L 603 306 L 602 307 L 602 308 L 601 309 L 601 310 L 600 311 L 600 312 L 599 313 L 599 315 L 598 316 L 598 317 L 597 318 L 597 320 L 596 321 L 596 322 L 595 323 L 595 325 L 594 326 L 594 329 L 593 330 L 593 332 L 592 333 L 592 335 L 591 336 L 591 340 L 590 341 L 590 344 L 589 345 L 589 349 L 588 350 L 588 355 L 587 356 L 587 364 L 586 365 L 586 378 L 585 379 L 585 405 L 586 406 L 586 452 L 585 453 L 585 463 L 584 464 L 584 470 L 583 471 L 583 475 L 582 476 L 582 480 L 581 481 L 581 484 L 580 485 L 580 488 L 579 489 L 579 491 L 578 492 L 578 495 L 577 496 L 577 498 L 576 499 L 576 501 L 575 502 L 575 504 L 574 505 L 574 507 L 573 508 L 573 509 L 572 510 L 572 511 L 571 512 L 571 514 L 570 515 L 570 516 L 569 517 L 569 518 L 568 519 L 568 521 L 566 523 L 566 524 L 565 525 L 565 526 L 564 527 L 564 528 L 563 529 L 563 530 L 562 531 L 562 532 L 561 533 L 561 534 L 559 536 L 559 537 L 558 538 L 558 539 L 556 541 L 556 542 L 554 544 L 554 545 L 552 547 L 552 548 L 550 550 L 550 551 L 548 553 L 548 554 L 546 556 L 546 557 L 543 560 L 543 561 L 540 564 L 540 565 L 536 569 L 536 570 L 532 574 L 532 575 L 527 580 L 527 581 L 521 587 L 521 588 L 489 620 L 489 623 L 490 624 L 490 629 L 491 630 L 491 642 L 490 643 L 490 649 L 489 650 L 489 653 L 488 654 L 488 656 L 487 657 L 487 659 L 486 660 L 486 661 L 485 662 L 485 664 L 484 665 L 484 666 L 483 667 L 483 668 L 482 669 L 482 670 L 480 672 L 480 673 L 479 674 L 479 675 L 476 678 L 476 679 L 469 686 L 469 687 L 468 688 L 467 688 L 461 694 L 460 694 L 459 695 L 459 697 L 458 698 L 458 702 L 457 703 L 457 705 L 456 706 L 456 710 L 455 711 L 455 715 L 454 716 L 454 722 L 453 723 L 453 729 L 452 730 L 452 742 L 451 743 L 451 760 L 452 761 L 452 768 L 453 769 L 453 774 L 454 774 L 456 772 L 457 772 L 458 771 L 460 771 L 461 770 L 463 770 L 464 769 L 466 769 L 467 768 L 470 768 L 471 767 L 493 767 L 494 768 L 497 768 L 498 769 L 501 769 L 502 770 L 503 770 L 503 758 L 504 757 L 504 748 L 505 747 L 505 741 L 506 740 L 506 736 L 507 735 L 507 730 L 508 729 L 508 726 L 509 725 L 509 722 L 510 721 L 510 718 L 511 717 L 511 714 L 512 713 L 512 711 L 513 710 L 513 708 L 514 707 L 514 704 L 515 703 L 515 701 L 516 700 L 516 698 L 517 697 L 517 696 L 518 695 L 518 693 L 519 692 L 519 690 L 520 689 L 520 688 L 521 687 L 521 685 L 522 684 L 522 682 L 523 681 L 523 680 L 524 679 L 524 678 L 525 677 L 525 675 L 526 674 L 526 673 L 527 672 L 527 671 L 528 670 L 528 668 L 529 667 L 529 666 L 530 665 L 530 664 L 531 663 L 531 662 L 532 661 L 532 659 L 533 658 L 533 657 L 534 656 L 534 655 L 535 654 L 535 653 L 536 652 L 536 651 L 537 650 L 537 649 L 538 648 L 538 647 L 539 646 L 539 644 L 540 643 L 540 642 L 541 641 L 541 640 L 542 639 L 542 638 L 543 637 L 543 636 L 544 635 L 544 634 L 545 633 L 545 632 L 546 631 L 546 630 L 547 629 L 547 628 L 548 627 L 548 626 L 549 625 L 549 624 L 550 623 L 550 622 L 551 621 L 551 620 L 552 619 L 552 618 L 554 616 L 554 615 L 555 614 L 555 612 L 557 610 L 557 609 L 558 608 L 558 607 L 559 606 L 559 605 L 560 604 L 560 603 L 561 602 L 561 601 L 562 600 L 562 599 L 563 598 L 563 597 L 564 596 L 564 595 L 565 594 L 565 593 L 566 592 L 566 591 L 567 590 L 567 589 L 568 588 L 568 587 L 569 586 L 569 585 L 570 584 L 570 583 L 571 582 L 571 581 L 572 580 L 572 579 L 573 578 L 573 577 L 574 576 L 574 575 L 575 574 L 575 573 L 576 572 L 576 571 L 577 570 L 577 569 L 578 568 L 578 567 L 579 566 L 579 565 L 580 564 L 580 563 L 581 562 L 581 561 L 582 560 L 582 559 L 583 558 L 583 557 L 584 556 L 584 554 L 585 553 L 585 552 L 586 551 L 586 550 L 587 549 L 587 548 L 588 547 L 588 545 L 589 544 L 589 543 L 590 542 L 590 540 L 591 539 L 591 538 L 592 537 L 592 535 L 593 534 L 593 532 L 594 531 L 594 529 L 595 528 L 595 527 L 596 526 L 596 524 L 597 523 L 597 521 L 598 520 L 598 519 L 599 518 L 599 515 L 600 514 L 600 512 L 601 511 L 601 509 L 602 508 L 602 505 L 603 504 L 603 501 L 604 500 L 604 497 L 605 496 L 605 491 L 606 490 L 606 485 L 607 484 L 607 479 L 605 477 L 605 476 L 601 472 L 601 471 L 600 470 L 600 469 L 599 468 L 599 466 L 598 465 L 598 461 L 597 460 L 597 459 L 598 458 L 598 454 L 599 453 L 599 451 L 600 450 L 600 449 L 603 446 L 603 445 L 606 442 L 607 442 L 611 438 L 612 438 L 614 436 L 615 436 L 617 434 L 618 434 L 620 432 L 621 432 L 622 431 L 623 431 L 623 430 L 622 429 L 622 428 L 621 427 L 621 426 L 619 424 L 619 423 L 618 422 L 618 421 L 617 420 L 617 419 L 616 418 L 616 417 L 615 416 L 615 413 L 614 412 L 614 410 L 613 409 L 613 405 L 612 404 L 612 398 L 611 397 L 611 388 L 612 387 L 612 380 L 613 379 L 613 375 L 614 374 L 614 372 L 615 371 L 615 369 L 616 368 L 616 367 L 617 366 L 617 365 L 618 364 L 618 363 L 619 362 L 619 361 L 621 359 L 621 358 L 629 350 L 630 350 L 631 349 L 632 349 L 633 348 L 634 348 L 635 347 L 637 347 L 638 346 L 648 346 L 649 347 L 651 347 L 652 348 L 654 348 L 656 350 L 657 350 L 659 352 L 660 352 L 663 355 L 663 356 L 666 359 L 666 360 L 668 362 L 668 363 L 669 364 L 669 365 L 670 366 L 670 367 L 671 368 L 671 369 L 672 370 L 672 372 L 673 373 L 673 375 L 674 376 L 674 379 L 675 380 L 675 388 L 676 389 L 676 399 L 675 400 L 675 405 L 674 406 L 674 410 L 673 411 L 675 411 L 676 410 L 680 410 L 681 409 L 699 409 L 700 410 L 705 410 L 706 411 L 710 411 L 711 412 L 714 412 L 715 413 L 716 412 L 717 413 L 717 412 L 716 411 L 716 406 L 715 405 L 715 385 L 716 384 L 716 379 L 717 378 L 717 375 L 718 374 L 718 372 L 719 371 L 719 370 L 720 369 L 720 368 L 721 367 L 721 366 L 722 365 L 722 364 L 723 363 L 723 362 L 725 360 L 725 359 L 733 351 L 734 351 L 736 349 L 737 349 L 738 348 L 739 348 L 740 347 L 743 347 L 744 346 L 754 346 L 755 347 L 758 347 L 759 348 L 760 348 L 762 350 L 763 350 L 765 352 L 766 352 L 771 357 L 771 358 L 773 360 L 773 361 L 775 363 L 775 364 L 776 365 L 776 366 L 777 367 L 777 369 L 778 370 L 778 371 L 779 372 L 779 375 L 780 376 L 780 379 L 781 380 L 781 387 L 782 388 L 782 399 L 781 400 L 781 406 L 780 407 L 780 411 L 779 412 L 779 415 L 778 416 L 778 417 L 777 418 L 777 420 L 776 421 L 776 422 L 775 423 L 775 424 L 774 425 L 774 426 L 772 428 L 772 429 L 769 432 L 769 433 L 767 435 L 767 436 L 768 437 L 769 437 L 770 438 L 771 438 L 774 441 L 775 441 L 783 449 L 783 450 L 784 451 L 784 452 L 785 453 L 785 456 L 786 457 L 786 464 L 785 465 L 785 467 L 784 468 L 784 470 L 782 472 L 782 473 L 780 475 L 780 476 L 777 479 L 777 493 L 778 494 L 778 500 L 779 501 L 779 505 L 780 506 L 780 510 L 781 511 L 781 514 L 782 515 L 782 518 L 783 519 L 783 521 L 784 522 L 784 525 L 785 526 L 785 529 L 786 530 L 786 532 L 787 533 L 787 535 L 788 536 L 788 538 L 789 539 L 789 541 L 790 542 L 790 544 L 791 545 L 791 546 L 792 547 L 792 549 L 793 550 L 793 551 L 794 552 L 794 554 L 795 555 L 795 556 L 796 557 L 796 559 L 797 560 L 797 561 L 798 562 L 798 563 L 799 564 L 799 565 L 800 566 L 800 567 L 801 568 L 801 569 L 802 570 L 802 572 L 803 573 L 803 574 L 805 576 L 805 578 L 806 579 L 806 580 L 807 581 L 807 582 L 808 583 L 808 584 L 809 585 L 809 586 L 810 587 L 810 588 L 812 590 L 812 591 L 813 592 L 813 593 L 814 594 L 814 595 L 815 596 L 815 597 L 816 598 L 816 599 L 817 600 L 817 601 L 819 603 L 819 604 L 820 605 L 820 606 L 821 607 L 821 608 L 822 609 L 822 610 L 824 612 L 824 613 L 825 614 L 825 615 L 826 616 L 826 617 L 827 618 L 827 619 L 829 621 L 829 622 L 830 623 L 830 624 L 831 625 L 831 626 L 832 627 L 832 628 L 834 630 L 834 631 L 835 632 L 835 633 L 836 634 L 836 635 L 837 636 L 837 637 L 838 638 L 838 639 L 839 640 L 839 641 L 840 642 L 840 643 L 841 644 L 841 645 L 842 646 L 842 647 L 843 648 L 843 649 L 844 650 L 844 651 L 845 652 L 845 653 L 846 654 L 846 655 L 847 656 L 847 657 L 848 658 L 848 660 L 849 661 L 849 662 L 850 663 L 850 665 L 851 666 L 851 667 L 852 668 L 852 670 L 853 671 L 853 673 L 854 674 L 854 675 L 855 676 L 855 677 L 856 678 L 856 680 L 857 681 L 857 683 L 858 684 L 858 687 L 859 688 L 859 690 L 860 691 L 860 693 L 861 694 L 861 698 L 862 699 L 862 701 L 863 702 L 863 705 L 864 706 L 864 710 L 865 711 L 865 714 L 866 715 L 866 720 L 867 721 L 867 726 L 868 727 L 868 734 L 869 735 L 869 749 L 870 750 L 870 765 L 871 765 L 872 764 L 876 764 L 877 763 L 889 763 L 890 764 L 896 764 L 897 765 L 899 765 L 900 766 L 902 766 L 903 767 L 904 767 L 905 768 L 906 768 L 907 769 L 909 769 L 911 771 L 912 771 L 914 773 L 915 773 L 918 776 L 919 776 L 927 784 L 927 785 L 930 788 L 930 789 L 932 791 L 932 792 L 934 794 L 934 795 L 938 799 L 939 799 L 940 800 L 941 800 L 942 799 L 942 798 L 943 797 L 943 795 L 944 794 L 944 793 L 945 792 L 945 791 L 946 790 L 946 788 L 947 787 L 947 785 L 948 784 L 948 782 L 949 781 L 949 778 L 950 777 L 950 774 L 951 773 L 951 770 L 952 769 L 952 765 L 953 764 L 953 759 L 954 758 L 954 752 L 955 751 L 955 737 L 956 736 L 956 725 L 955 724 L 955 710 L 954 709 L 954 702 L 953 701 L 953 696 L 952 695 L 952 691 L 951 690 L 951 686 L 950 685 L 950 681 L 949 680 L 949 678 L 948 677 L 948 673 L 947 672 L 947 670 L 946 669 L 946 666 L 945 665 L 945 663 L 944 662 L 944 660 L 943 659 L 943 657 L 942 656 L 942 655 L 941 654 L 941 652 L 940 651 L 940 649 L 939 648 L 939 647 L 938 646 L 938 644 L 937 643 L 937 642 L 936 641 L 936 639 L 935 638 L 935 637 L 934 636 L 934 635 L 933 634 L 933 633 L 932 632 L 932 631 L 931 630 L 931 629 L 930 628 L 930 627 L 929 626 L 929 625 L 928 624 L 928 623 L 927 622 L 927 621 L 926 620 L 926 619 L 925 618 L 925 617 L 923 615 L 923 614 L 922 613 L 922 612 L 921 611 L 921 610 L 920 609 L 920 608 L 918 606 L 918 605 L 916 603 L 916 602 L 914 600 L 914 599 L 912 597 L 912 596 L 911 595 L 911 594 L 908 591 L 908 590 L 906 588 L 906 587 L 903 584 L 903 583 L 901 581 L 901 580 L 898 577 L 898 576 L 894 572 L 894 571 L 890 567 L 890 566 L 886 562 L 886 561 L 880 555 L 880 554 L 874 548 L 874 547 L 869 542 L 869 541 L 865 537 L 865 536 L 862 533 L 862 532 L 859 529 L 859 528 L 857 526 L 857 525 L 855 523 L 855 522 L 853 520 L 853 519 L 851 517 L 851 516 L 850 515 L 850 514 L 848 512 L 848 511 L 847 510 L 847 509 L 846 508 L 846 507 L 845 506 L 845 505 L 844 504 L 844 503 L 843 502 L 843 501 L 842 500 L 842 499 L 841 498 L 841 497 L 840 496 L 840 495 L 839 494 L 839 493 L 838 492 L 838 490 L 837 489 L 837 488 L 836 487 L 836 485 L 835 484 L 835 481 L 834 480 L 834 478 L 833 477 L 833 474 L 832 473 L 832 469 L 831 468 L 831 464 L 830 463 L 830 457 L 829 456 L 829 449 L 828 448 L 828 436 L 827 435 L 827 411 L 826 410 L 826 378 L 825 377 L 825 363 L 824 362 L 824 354 L 823 353 L 823 347 L 822 346 L 822 342 L 821 341 L 821 337 L 820 336 L 820 333 L 819 332 L 819 330 L 818 329 L 818 326 L 817 325 L 817 322 L 816 321 L 816 320 L 815 319 L 815 317 L 814 316 L 814 314 L 813 313 L 813 312 L 812 311 L 812 310 L 811 309 L 811 307 L 810 306 L 810 305 L 809 304 L 809 303 L 807 301 L 807 300 L 806 299 L 806 298 L 804 296 L 804 295 L 803 294 L 803 293 L 800 290 L 800 289 L 798 287 L 798 286 L 782 270 L 781 270 L 778 267 L 777 267 L 775 265 L 774 265 L 772 263 L 771 263 L 769 261 L 768 261 L 767 260 L 766 260 L 765 259 L 764 259 L 763 258 L 762 258 L 761 257 L 760 257 L 759 256 L 758 256 L 757 255 L 756 255 L 755 254 L 753 254 L 752 253 L 750 253 L 749 252 L 747 252 L 746 251 L 744 251 L 743 250 L 740 250 L 739 249 L 736 249 L 735 248 L 729 248 L 728 247 L 722 247 L 721 246 Z M 416 165 L 416 166 L 415 167 L 415 168 L 414 169 L 414 170 L 413 171 L 413 172 L 412 173 L 412 174 L 411 175 L 411 177 L 410 178 L 410 179 L 409 180 L 409 181 L 408 182 L 408 183 L 407 184 L 407 185 L 406 186 L 406 187 L 405 188 L 405 190 L 404 191 L 404 192 L 403 193 L 403 194 L 402 195 L 402 196 L 401 197 L 401 198 L 400 199 L 400 201 L 399 202 L 399 203 L 398 204 L 398 205 L 397 206 L 397 207 L 396 208 L 396 209 L 395 210 L 395 212 L 394 213 L 394 214 L 393 215 L 393 216 L 392 217 L 392 218 L 391 219 L 391 220 L 390 221 L 390 222 L 389 223 L 389 225 L 388 226 L 388 227 L 387 228 L 387 229 L 386 230 L 386 231 L 385 232 L 385 233 L 384 234 L 384 235 L 383 236 L 383 238 L 382 239 L 382 240 L 381 241 L 381 243 L 394 243 L 395 242 L 401 242 L 402 243 L 402 428 L 401 429 L 366 429 L 365 428 L 361 428 L 360 427 L 358 427 L 357 426 L 355 426 L 354 425 L 353 425 L 352 424 L 351 424 L 350 423 L 349 423 L 347 421 L 346 421 L 336 411 L 336 410 L 334 408 L 334 407 L 333 406 L 333 405 L 332 404 L 332 402 L 331 401 L 331 399 L 330 398 L 330 395 L 329 394 L 329 386 L 328 385 L 328 381 L 329 380 L 329 370 L 330 369 L 330 363 L 331 362 L 331 357 L 332 356 L 332 351 L 333 350 L 333 344 L 334 343 L 334 338 L 335 337 L 335 331 L 336 330 L 336 322 L 337 321 L 337 310 L 338 309 L 338 282 L 340 280 L 348 280 L 349 281 L 356 281 L 356 280 L 355 279 L 355 277 L 354 276 L 354 275 L 353 274 L 353 273 L 352 272 L 352 271 L 351 270 L 351 268 L 350 267 L 350 266 L 349 265 L 349 264 L 348 263 L 348 262 L 347 261 L 347 259 L 346 258 L 346 257 L 345 256 L 345 255 L 344 254 L 344 252 L 343 251 L 343 250 L 342 249 L 342 248 L 341 247 L 341 246 L 340 245 L 340 244 L 339 243 L 339 241 L 338 240 L 338 239 L 337 238 L 337 237 L 336 236 L 336 235 L 335 234 L 335 233 L 334 232 L 334 230 L 333 229 L 333 228 L 332 227 L 332 226 L 331 225 L 331 223 L 330 222 L 330 221 L 329 220 L 329 219 L 328 218 L 328 217 L 327 216 L 327 214 L 326 215 L 326 216 L 325 217 L 325 218 L 324 219 L 324 220 L 323 221 L 323 223 L 322 224 L 322 225 L 321 226 L 321 227 L 320 228 L 320 229 L 319 230 L 319 232 L 318 233 L 318 234 L 317 235 L 317 236 L 316 237 L 316 238 L 315 239 L 315 240 L 314 241 L 314 243 L 313 244 L 313 245 L 312 246 L 312 247 L 311 248 L 311 249 L 310 250 L 310 252 L 309 253 L 309 254 L 308 255 L 308 256 L 307 257 L 307 258 L 306 259 L 306 260 L 305 261 L 305 262 L 304 263 L 304 265 L 303 266 L 303 267 L 302 268 L 302 269 L 301 270 L 301 271 L 300 272 L 300 273 L 299 274 L 299 276 L 298 277 L 298 278 L 297 279 L 297 280 L 296 281 L 306 281 L 307 280 L 313 280 L 314 281 L 314 302 L 313 303 L 313 315 L 312 316 L 312 323 L 311 324 L 311 330 L 310 331 L 310 336 L 309 337 L 309 342 L 308 343 L 308 348 L 307 349 L 307 354 L 306 355 L 306 360 L 305 361 L 305 367 L 304 368 L 304 377 L 303 378 L 303 392 L 304 393 L 304 400 L 305 401 L 305 405 L 306 406 L 306 409 L 307 410 L 307 412 L 308 413 L 308 415 L 309 416 L 309 417 L 310 418 L 310 420 L 311 421 L 311 422 L 313 424 L 313 425 L 314 426 L 314 427 L 317 430 L 317 431 L 320 434 L 320 435 L 324 439 L 325 439 L 329 443 L 330 443 L 332 445 L 333 445 L 335 447 L 336 447 L 337 448 L 338 448 L 340 450 L 341 450 L 342 451 L 344 451 L 345 452 L 346 452 L 347 453 L 350 453 L 351 454 L 353 454 L 354 455 L 357 455 L 358 456 L 361 456 L 362 457 L 370 457 L 371 458 L 401 458 L 402 459 L 402 504 L 401 505 L 401 575 L 402 575 L 403 574 L 406 574 L 407 573 L 411 573 L 412 572 L 428 572 L 428 514 L 429 513 L 429 459 L 430 458 L 461 458 L 462 457 L 471 457 L 472 456 L 475 456 L 476 455 L 479 455 L 480 454 L 482 454 L 483 453 L 485 453 L 486 452 L 487 452 L 488 451 L 490 451 L 491 450 L 492 450 L 493 449 L 494 449 L 496 447 L 497 447 L 498 446 L 499 446 L 502 443 L 503 443 L 506 440 L 507 440 L 511 436 L 511 435 L 516 430 L 516 429 L 518 427 L 518 426 L 520 424 L 520 423 L 521 422 L 521 421 L 522 420 L 522 419 L 523 418 L 523 417 L 524 416 L 524 414 L 525 413 L 525 411 L 526 410 L 526 408 L 527 407 L 527 403 L 528 402 L 528 397 L 529 396 L 529 372 L 528 371 L 528 364 L 527 363 L 527 357 L 526 356 L 526 352 L 525 351 L 525 346 L 524 345 L 524 340 L 523 339 L 523 334 L 522 333 L 522 327 L 521 326 L 521 319 L 520 318 L 520 309 L 519 308 L 519 288 L 518 287 L 518 282 L 520 280 L 526 280 L 527 281 L 537 281 L 536 280 L 536 279 L 535 278 L 535 277 L 534 276 L 534 274 L 533 273 L 533 272 L 532 271 L 532 270 L 531 269 L 531 268 L 530 267 L 530 266 L 529 265 L 529 263 L 528 262 L 528 261 L 527 260 L 527 259 L 526 258 L 526 256 L 525 255 L 525 254 L 524 253 L 524 252 L 523 251 L 523 250 L 522 249 L 522 247 L 521 246 L 521 245 L 520 244 L 520 243 L 519 242 L 519 241 L 518 240 L 518 238 L 517 237 L 517 236 L 516 235 L 516 234 L 515 233 L 515 232 L 514 231 L 514 229 L 513 228 L 513 227 L 512 226 L 512 225 L 511 224 L 511 223 L 510 222 L 510 220 L 509 219 L 509 218 L 508 217 L 508 216 L 507 215 L 507 214 L 507 215 L 506 216 L 506 217 L 505 218 L 505 219 L 504 220 L 504 221 L 503 222 L 503 224 L 502 225 L 502 226 L 501 227 L 501 228 L 500 229 L 500 230 L 499 231 L 499 233 L 498 234 L 498 235 L 497 236 L 497 237 L 496 238 L 496 239 L 495 240 L 495 241 L 494 242 L 494 244 L 493 245 L 493 246 L 492 247 L 492 248 L 491 249 L 491 250 L 490 251 L 490 252 L 489 253 L 489 254 L 488 255 L 488 257 L 487 258 L 487 259 L 486 260 L 486 261 L 485 262 L 485 263 L 484 264 L 484 266 L 483 267 L 483 268 L 482 269 L 482 270 L 481 271 L 481 272 L 480 273 L 480 275 L 479 276 L 479 277 L 478 278 L 478 279 L 477 280 L 477 281 L 485 281 L 486 280 L 494 280 L 495 281 L 495 288 L 494 289 L 494 295 L 495 296 L 495 315 L 496 316 L 496 326 L 497 327 L 497 334 L 498 335 L 498 341 L 499 342 L 499 348 L 500 349 L 500 354 L 501 355 L 501 360 L 502 361 L 502 367 L 503 368 L 503 376 L 504 377 L 504 388 L 503 389 L 503 395 L 502 396 L 502 399 L 501 400 L 501 402 L 500 403 L 500 404 L 499 405 L 499 406 L 498 407 L 498 408 L 497 409 L 497 410 L 494 413 L 494 414 L 488 420 L 487 420 L 485 422 L 484 422 L 482 424 L 481 424 L 480 425 L 479 425 L 478 426 L 476 426 L 475 427 L 473 427 L 472 428 L 469 428 L 468 429 L 439 429 L 438 430 L 436 430 L 435 429 L 430 429 L 429 428 L 429 243 L 430 242 L 436 242 L 437 243 L 450 243 L 451 242 L 450 241 L 450 239 L 449 238 L 449 237 L 448 236 L 448 235 L 447 234 L 447 233 L 446 232 L 446 230 L 445 229 L 445 228 L 444 227 L 444 226 L 443 225 L 443 224 L 442 223 L 442 222 L 441 221 L 441 219 L 440 218 L 440 217 L 439 216 L 439 215 L 438 214 L 438 213 L 437 212 L 437 210 L 436 209 L 436 208 L 435 207 L 435 206 L 434 205 L 434 204 L 433 203 L 433 202 L 432 201 L 432 199 L 431 198 L 431 197 L 430 196 L 430 195 L 429 194 L 429 193 L 428 192 L 428 190 L 427 189 L 427 188 L 426 187 L 426 186 L 425 185 L 425 184 L 424 183 L 424 182 L 423 181 L 423 180 L 422 179 L 422 177 L 421 176 L 421 175 L 420 174 L 420 173 L 419 172 L 419 171 L 418 170 L 418 169 L 417 168 L 417 167 L 416 166 Z" />
</svg>
